<svg width="65" height="65" viewBox="0 0 65 65" fill="none" xmlns="http://www.w3.org/2000/svg">
<g clip-path="url(#clip0_1610_3000)">
<rect width="65" height="65" fill="white"/>
<g clip-path="url(#clip1_1610_3000)">
<path style="mix-blend-mode:color-burn" opacity="0.4" d="M94.1291 57.7032C103.074 19.8033 79.6019 -18.1721 41.702 -27.1173C3.80211 -36.0625 -34.1733 -12.5901 -43.1185 25.3098C-52.0637 63.2097 -28.5913 101.185 9.30861 110.13C47.2085 119.075 85.1839 95.603 94.1291 57.7032Z" fill="url(#paint0_radial_1610_3000)"/>
<path d="M33.3122 88.2491C32.8745 88.2491 32.429 88.2338 31.9913 88.2261L32.2754 78.4342L33.3967 78.4572L33.3122 88.2568V88.2491ZM35.1938 88.2338L34.9327 78.4342C35.3013 78.4265 35.67 78.4111 36.0386 78.3958L36.5301 88.18C36.0847 88.203 35.6392 88.2184 35.1938 88.2338ZM30.1174 88.1416C29.6643 88.1109 29.2188 88.0802 28.7657 88.0418L29.6259 78.2806C29.9868 78.3113 30.3478 78.342 30.7164 78.3651L30.1174 88.1416ZM38.3963 88.0571L37.5976 78.296C37.9586 78.2652 38.3272 78.2345 38.6882 78.1884L39.748 87.9266C39.3026 87.9726 38.8494 88.0187 38.3963 88.0571V88.0571ZM26.9072 87.8421C26.4617 87.7883 26.0163 87.7269 25.5786 87.6654L26.984 77.9734C27.3526 78.0271 27.7136 78.0732 28.0822 78.1193L26.9072 87.8498V87.8421ZM41.6065 87.6962L40.2318 77.9964C40.6005 77.9427 40.9614 77.8889 41.3224 77.8275L42.9352 87.4888C42.4974 87.5656 42.052 87.6347 41.6065 87.6962V87.6962ZM23.7354 87.3659C23.2976 87.2891 22.8522 87.2047 22.4144 87.1125L24.3728 77.5126C24.7338 77.5894 25.0947 77.6585 25.4557 77.72L23.7354 87.3659ZM44.7707 87.1509L42.8507 77.5433C43.2116 77.4742 43.5649 77.3974 43.9182 77.3129L46.0993 86.8667C45.6615 86.9666 45.2161 87.0587 44.7707 87.1509ZM20.5866 86.6978C20.1489 86.5903 19.7034 86.4827 19.2657 86.3675L21.8 76.8982C22.1533 76.9904 22.4989 77.0825 22.8522 77.167L20.5866 86.6978V86.6978ZM47.9194 86.4213L45.4235 76.9443C45.7844 76.8521 46.1377 76.7523 46.4986 76.6448L49.2097 86.0603C48.7873 86.1832 48.3572 86.2984 47.9271 86.4136L47.9194 86.4213ZM17.4686 85.853C17.0385 85.7224 16.6084 85.5842 16.1783 85.446L19.258 76.1456C19.6036 76.2608 19.9492 76.3683 20.3025 76.4758L17.4609 85.853H17.4686ZM51.0068 85.5151L47.9732 76.1993C48.3265 76.0841 48.6797 75.9613 49.033 75.8384L52.2739 85.085C51.8515 85.2309 51.4291 85.3768 51.0068 85.5151V85.5151ZM14.412 84.8316C13.9973 84.678 13.5825 84.5167 13.1678 84.3554L16.762 75.2393C17.1076 75.3776 17.4532 75.5081 17.8065 75.6387L14.4196 84.8316H14.412ZM54.048 84.4245L50.4768 75.3008C50.8224 75.1702 51.1604 75.0243 51.4983 74.8861L55.2921 83.9176C54.8774 84.0943 54.4627 84.2556 54.048 84.4245ZM11.4322 83.6335C11.0251 83.4569 10.6181 83.2725 10.2111 83.0882L14.3352 74.2026C14.6654 74.3562 15.0033 74.5098 15.3412 74.6557L11.4245 83.6412L11.4322 83.6335ZM57.0201 83.165L52.9267 74.264C53.2646 74.1104 53.5949 73.9491 53.9251 73.7878L58.2412 82.589C57.8419 82.7887 57.4348 82.9807 57.0201 83.165ZM8.52147 82.2665C8.1298 82.0668 7.73044 81.8594 7.33877 81.6521L11.9698 73.0199C12.2923 73.1965 12.6225 73.3654 12.9528 73.5344L8.51379 82.2665H8.52147ZM59.9155 81.7289L55.3075 73.0813C55.6301 72.9047 55.9526 72.728 56.2752 72.5514L61.0982 81.0761C60.7065 81.2988 60.3148 81.5138 59.9155 81.7212V81.7289ZM5.71062 80.7458C5.31895 80.5231 4.93495 80.2927 4.55864 80.0547L9.68882 71.7066C9.99602 71.8986 10.3109 72.0829 10.6335 72.2672L5.71831 80.7458H5.71062ZM62.7186 80.1391L57.6192 71.7757C57.934 71.5837 58.2489 71.384 58.5561 71.192L63.8553 79.4326C63.4789 79.6707 63.1026 79.9087 62.7186 80.1468V80.1391ZM2.98426 79.0563C2.60794 78.8105 2.2393 78.5571 1.87067 78.3036L7.46164 70.2551C7.76116 70.4625 8.06068 70.6698 8.36787 70.8695L2.97658 79.0563H2.98426ZM65.4219 78.3881L59.854 70.3242C60.1612 70.1169 60.4607 69.9018 60.7602 69.6868L66.5125 77.6201C66.1515 77.8812 65.7829 78.1424 65.4143 78.3958L65.4219 78.3881ZM0.350045 77.2054C-0.00323098 76.9366 -0.364188 76.6678 -0.709784 76.3913L5.33431 68.6807C5.62615 68.9111 5.91798 69.1338 6.2175 69.3565L0.350045 77.2054ZM68.0254 76.4758L61.9967 68.7498L62.8722 68.051L69.0622 75.6464C68.7166 75.9229 68.371 76.1993 68.0254 76.4758V76.4758ZM-2.16897 75.2086C-2.50688 74.9245 -2.8448 74.6326 -3.18271 74.3408L3.28377 66.9834C3.56025 67.2292 3.84441 67.4673 4.12856 67.7054L-2.16897 75.2086ZM70.4984 74.4253L64.0472 67.0526C64.3237 66.8068 64.6002 66.561 64.8767 66.3076L71.4968 73.5344C71.1665 73.8339 70.8363 74.1334 70.506 74.4253H70.4984ZM-4.55742 73.0813C-4.88766 72.7741 -5.21021 72.4592 -5.52509 72.152L1.34843 65.1633C1.60955 65.4167 1.87067 65.6779 2.13947 65.9236L-4.55742 73.0813ZM72.8638 72.2365L65.9903 65.2478C66.2514 64.9867 66.5125 64.7256 66.7736 64.4568L73.8007 71.2842C73.4935 71.6068 73.1787 71.9216 72.8561 72.2288L72.8638 72.2365ZM-6.85371 70.8004C-7.16091 70.4778 -7.46043 70.1552 -7.75226 69.825L-0.487066 63.251L0.273247 64.0728L-6.85371 70.8004V70.8004ZM75.0833 69.9249L67.8334 63.3355C68.0792 63.0667 68.325 62.7902 68.563 62.5137L75.9742 68.9188C75.6823 69.2567 75.3828 69.5946 75.0833 69.9249ZM-9.00409 68.3965C-9.28825 68.0586 -9.5724 67.7207 -9.8412 67.3751L-2.20736 61.2312L-1.49313 62.099L-8.99641 68.3965H-9.00409ZM77.1799 67.475L69.5537 61.3234C69.7841 61.0392 70.0145 60.7474 70.2373 60.4555L78.0093 66.4228C77.7328 66.7761 77.4564 67.1294 77.1799 67.475V67.475ZM-11.0009 65.8852C-11.2697 65.5243 -11.5308 65.1633 -11.7919 64.8024L-3.81247 59.1192C-3.59743 59.4187 -3.37471 59.7183 -3.15199 60.0178L-11.0009 65.8852ZM79.1306 64.9176L71.1588 59.2191L71.7963 58.3051L79.8832 63.8347C79.6375 64.2033 79.384 64.5643 79.1229 64.9176H79.1306ZM-12.8517 63.2664C-13.0975 62.8901 -13.3432 62.5137 -13.5813 62.1374L-5.28701 56.9151C-5.08733 57.2223 -4.89533 57.5372 -4.68798 57.8444L-12.844 63.274L-12.8517 63.2664ZM80.9277 62.2603L72.6564 57.0149C72.8484 56.7077 73.0404 56.3928 73.2324 56.078L81.6342 61.116C81.4038 61.5 81.1658 61.884 80.9277 62.2603ZM-14.5567 60.5246C-14.7794 60.1406 -15.0021 59.749 -15.2171 59.3573L-6.63867 54.6265C-6.46204 54.949 -6.27772 55.2716 -6.0934 55.5941L-14.5567 60.5323V60.5246ZM82.5712 59.4955L74.0081 54.734C74.1847 54.4114 74.3614 54.0965 74.5303 53.7663L83.2086 58.3128C83.0013 58.7122 82.7862 59.1039 82.5712 59.4955ZM-16.1003 57.6907C-16.3 57.2914 -16.4997 56.892 -16.6917 56.4927L-7.85978 52.2457C-7.6985 52.5836 -7.53723 52.9138 -7.36827 53.2441L-16.108 57.6831L-16.1003 57.6907ZM84.0457 56.6463L75.2292 52.3839C75.3905 52.0537 75.5441 51.7235 75.69 51.3932L84.6217 55.4252C84.4374 55.8322 84.2454 56.2392 84.0534 56.6463H84.0457ZM-17.475 54.7801C-17.6594 54.373 -17.8283 53.9583 -18.0049 53.5359L-8.93497 49.8188C-8.79673 50.1644 -8.65081 50.5024 -8.50489 50.8403L-17.475 54.7801V54.7801ZM85.3667 53.7126L76.3121 49.9724C76.4503 49.6268 76.5885 49.2812 76.7268 48.9357L85.8659 52.4684C85.7046 52.8831 85.5433 53.2978 85.3744 53.7049L85.3667 53.7126ZM-18.6885 51.7695C-18.8421 51.3548 -18.9957 50.9324 -19.1339 50.51L-9.86424 47.3305C-9.74136 47.6838 -9.61848 48.0371 -9.48792 48.3827L-18.6808 51.7619L-18.6885 51.7695ZM86.5033 50.7097L77.249 47.4918C77.3719 47.1462 77.4871 46.8006 77.5946 46.4474L86.9257 49.4348C86.7875 49.8649 86.6492 50.2873 86.5033 50.7097V50.7097ZM-19.7252 48.7129C-19.8558 48.2905 -19.9787 47.8605 -20.1016 47.4304L-10.663 44.7885C-10.5631 45.1495 -10.4556 45.5027 -10.3481 45.856L-19.7252 48.7053V48.7129ZM87.471 47.6377L78.0401 44.9651C78.1399 44.6119 78.2397 44.2586 78.3319 43.8976L87.8243 46.3322C87.7167 46.7699 87.5939 47.2 87.471 47.6301V47.6377ZM-20.57 45.6256C-20.6776 45.1879 -20.7774 44.7501 -20.8696 44.3123L-11.2927 42.2157C-11.2159 42.5767 -11.1314 42.93 -11.0469 43.2909L-20.5624 45.6179L-20.57 45.6256ZM88.2543 44.5197L78.6928 42.3847C78.7696 42.0314 78.8464 41.6781 78.9156 41.3172L88.5308 43.1834C88.4463 43.6288 88.3542 44.0743 88.2543 44.512V44.5197ZM-21.2459 42.4615C-21.3227 42.0237 -21.3995 41.5783 -21.4686 41.1405L-11.7919 39.6199C-11.7381 39.9809 -11.669 40.3495 -11.6076 40.7105L-21.2459 42.4692V42.4615ZM88.861 41.3479L79.1844 39.7966L79.3533 38.6906L89.0607 40.0346C88.9993 40.4724 88.9378 40.9101 88.861 41.3479ZM-21.7297 39.2743C-21.7835 38.8366 -21.8295 38.3988 -21.8756 37.9534L-12.1221 36.978L-11.9993 38.0916L-21.7297 39.2743V39.2743ZM89.2758 38.1607L79.5299 37.1547C79.5683 36.7937 79.5991 36.4328 79.6298 36.0718L89.3986 36.8167C89.3602 37.2699 89.3218 37.723 89.2758 38.1684V38.1607ZM-22.0292 36.0872C-22.0599 35.634 -22.083 35.1886 -22.106 34.7355L-12.3141 34.3361C-12.2988 34.7048 -12.2834 35.0657 -12.2527 35.4267L-22.0292 36.0872V36.0872ZM89.5138 34.9429L79.7219 34.5128L79.7603 33.3915L89.5599 33.6219C89.5522 34.0597 89.5369 34.5051 89.5138 34.9429ZM-22.1521 32.8616V32.3854V31.533L-12.3525 31.6635V32.3547V32.7771L-22.1521 32.8539V32.8616ZM79.768 31.8478C79.768 31.4792 79.7527 31.1106 79.745 30.7419L89.5369 30.3963C89.5522 30.8418 89.5599 31.2872 89.5676 31.7326L79.768 31.8478ZM-12.2988 30.1275L-22.083 29.6437C-22.0599 29.1983 -22.0369 28.7605 -22.0062 28.3228L-12.2297 29.014L-12.2988 30.1352V30.1275ZM79.6682 29.1829C79.6451 28.8143 79.6144 28.4533 79.5837 28.0924L89.3372 27.1708C89.3756 27.6162 89.414 28.0693 89.4447 28.5224L79.6682 29.1829V29.1829ZM-12.0914 27.4703L-21.8372 26.4412C-21.7911 25.9958 -21.7374 25.5503 -21.6836 25.1049L-11.9685 26.3721C-12.0146 26.733 -12.0607 27.1017 -12.0991 27.4703H-12.0914ZM79.4148 26.5487L79.2612 25.4428L88.9532 23.999C89.0223 24.4367 89.0838 24.8745 89.1375 25.3122L79.4148 26.541V26.5487ZM-11.7381 24.8514L-21.4071 23.2463C-21.3303 22.8086 -21.2612 22.3708 -21.1768 21.9331L-11.5461 23.7455L-11.7381 24.8438V24.8514ZM79.0077 23.9222C78.9386 23.5612 78.8695 23.2079 78.7927 22.8547L88.3772 20.8195C88.4694 21.2649 88.5615 21.7027 88.6383 22.1481L79 23.9222H79.0077ZM-11.2236 22.2326L-20.7928 20.1129C-20.6929 19.6675 -20.5931 19.2221 -20.4779 18.7843L-10.9778 21.1728C-11.0623 21.526 -11.1468 21.8716 -11.2313 22.2326H-11.2236ZM78.4471 21.3417C78.3626 20.9884 78.2704 20.6275 78.1706 20.2819L87.6169 17.6861C87.7321 18.1162 87.8473 18.5539 87.9548 18.9917L78.4394 21.3417H78.4471ZM-10.5785 19.6752L-19.994 16.9795C-19.8712 16.5495 -19.7406 16.1194 -19.61 15.6893L-10.2636 18.623C-10.3711 18.9686 -10.4786 19.3219 -10.5785 19.6752V19.6752ZM77.7328 18.7843C77.6253 18.431 77.5101 18.0778 77.3949 17.7322L86.68 14.6064C86.8259 15.0288 86.9641 15.4589 87.0947 15.889L77.7328 18.7843V18.7843ZM-9.77976 17.1562L-19.0264 13.9152C-18.8805 13.4929 -18.7269 13.0781 -18.5733 12.6634L-9.40345 16.1117C-9.534 16.4573 -9.66456 16.8106 -9.78744 17.1562H-9.77976ZM76.8727 16.273C76.7421 15.9274 76.6116 15.5818 76.4733 15.2362L85.5664 11.5959C85.7353 12.0106 85.8966 12.4253 86.0502 12.8477L76.8727 16.2807V16.273ZM-8.82745 14.6756L-17.8821 10.9278C-17.7131 10.513 -17.5365 10.0983 -17.3522 9.6913L-8.39738 13.6772C-8.54329 14.0074 -8.68921 14.3453 -8.82745 14.6756V14.6756ZM75.8666 13.8077C75.7207 13.4698 75.5671 13.1396 75.4135 12.8093L84.2685 8.62379C84.4605 9.03082 84.6525 9.44554 84.8291 9.86025L75.8666 13.8154V13.8077ZM-7.74458 12.2794L-16.5534 7.98635C-16.3538 7.587 -16.1618 7.18764 -15.9544 6.78829L-7.25307 11.2887C-7.42203 11.619 -7.58331 11.9415 -7.74458 12.2717V12.2794ZM74.73 11.4116C74.561 11.0814 74.3844 10.7511 74.2078 10.4209L82.8246 5.75918C83.0397 6.15085 83.247 6.54253 83.4467 6.94189L74.73 11.4116ZM-6.5158 9.92937L-15.0712 5.15247C-14.8562 4.76079 -14.6335 4.37679 -14.4031 3.9928L-5.96284 8.97706C-6.14716 9.29194 -6.33148 9.6145 -6.5158 9.93705V9.92937ZM73.4475 9.0769C73.2631 8.76203 73.0711 8.44715 72.8791 8.13227L81.2042 2.96369C81.4422 3.34769 81.6726 3.73168 81.903 4.11568L73.4551 9.06922L73.4475 9.0769ZM-5.14877 7.64844L-13.42 2.40306C-13.182 2.01906 -12.9285 1.64275 -12.6751 1.26643L-4.54974 6.74221C-4.74942 7.04173 -4.94909 7.34124 -5.14109 7.64844H-5.14877ZM72.0344 6.83437L71.3969 5.9051L79.4224 0.283402C79.6759 0.644358 79.9293 1.01299 80.1751 1.38163L72.0344 6.83437V6.83437ZM-3.65887 5.45198L-11.6306 -0.246514C-11.3695 -0.61515 -11.093 -0.983786 -10.8165 -1.34474L-3.01376 4.58415C-3.2288 4.86831 -3.44383 5.16015 -3.65119 5.45198H-3.65887ZM70.4984 4.67631C70.2757 4.38447 70.0453 4.08496 69.8149 3.8008L77.4871 -2.28937C77.7636 -1.94377 78.0324 -1.5905 78.3088 -1.22954L70.4984 4.68399V4.67631ZM-2.06145 3.37073L-9.65688 -2.81928C-9.37272 -3.16488 -9.08857 -3.5028 -8.80441 -3.84071L-1.34722 2.51826C-1.58529 2.80241 -1.82337 3.08657 -2.05377 3.37073H-2.06145ZM68.8318 2.60274C68.5938 2.31858 68.348 2.0421 68.1022 1.76563L75.4212 -4.74694C75.7207 -4.41671 76.0126 -4.07879 76.2967 -3.74087L68.8318 2.60274V2.60274ZM-0.325788 1.35859L-7.56794 -5.24614C-7.26843 -5.57637 -6.96123 -5.90661 -6.64636 -6.22917L0.426846 0.552198C0.173409 0.813315 -0.0800309 1.08211 -0.325788 1.35859V1.35859ZM67.0501 0.628999C66.7966 0.367882 66.5432 0.106764 66.2898 -0.154353L73.2017 -7.09699C73.5243 -6.77444 73.8391 -6.45188 74.1463 -6.12933L67.0501 0.621317V0.628999ZM1.52507 -0.553709L-5.33309 -7.55011C-5.01053 -7.86499 -4.6803 -8.17986 -4.35006 -8.48706L2.3161 -1.30634C2.04731 -1.06058 1.78619 -0.807146 1.52507 -0.553709ZM65.1685 -1.2449C64.8997 -1.49834 64.6309 -1.7441 64.3544 -1.98985L70.867 -9.30881C71.1972 -9.00929 71.5352 -8.70978 71.8577 -8.40258L65.1608 -1.2449H65.1685ZM3.46809 -2.35081L-2.95232 -9.75425C-2.6144 -10.0461 -2.27648 -10.3302 -1.93857 -10.6144L4.31288 -3.07272C4.02872 -2.83464 3.74457 -2.59657 3.46041 -2.35081H3.46809ZM63.1871 -3.0036C62.9029 -3.24168 62.6188 -3.47208 62.3269 -3.70247L68.4171 -11.3747C68.7627 -11.0982 69.1083 -10.8141 69.4539 -10.5299L63.1871 -2.99592V-3.0036ZM5.54166 -4.04807L-0.471705 -11.7817C-0.118429 -12.0582 0.242528 -12.327 0.603484 -12.5958L6.42486 -4.71622C6.12534 -4.50119 5.8335 -4.27847 5.54166 -4.04807ZM61.1058 -4.6471C60.814 -4.86214 60.5145 -5.07718 60.215 -5.29222L65.852 -13.31C66.2207 -13.0489 66.5816 -12.7878 66.9426 -12.519L61.1135 -4.6471H61.1058ZM7.68436 -5.61477L2.13947 -13.694C2.5081 -13.9475 2.88442 -14.2009 3.26073 -14.4467L8.60595 -6.22917C8.29876 -6.02949 7.99156 -5.82213 7.69204 -5.61477H7.68436ZM58.9401 -6.16005L57.9955 -6.75908L63.1717 -15.0764C63.5481 -14.8383 63.9167 -14.608 64.293 -14.3622L58.9401 -6.16005V-6.16005ZM9.91154 -7.05092L4.85815 -15.4451C5.24215 -15.6755 5.61846 -15.8982 6.01014 -16.1209L10.8792 -7.61923C10.5567 -7.43491 10.2341 -7.24291 9.91922 -7.0586L9.91154 -7.05092ZM56.6745 -7.55011C56.352 -7.73443 56.0371 -7.91107 55.7069 -8.0877L60.3993 -16.6892C60.791 -16.4742 61.1826 -16.2591 61.5666 -16.0364L56.6745 -7.55011V-7.55011ZM12.2386 -8.36418L7.65364 -17.0194C8.053 -17.2345 8.45235 -17.4342 8.85939 -17.6415L13.2216 -8.86338C12.8913 -8.7021 12.5688 -8.53314 12.2462 -8.36418H12.2386ZM54.3552 -8.80194C54.025 -8.97089 53.6947 -9.13217 53.3568 -9.28577L57.5424 -18.1484C57.9417 -17.9564 58.3411 -17.7644 58.7404 -17.5647L54.3552 -8.80194V-8.80194ZM14.627 -9.53153L10.549 -18.4402C10.956 -18.6245 11.3707 -18.8089 11.7854 -18.9855L15.6484 -9.97696C15.3105 -9.83104 14.9726 -9.68513 14.6347 -9.53153H14.627ZM51.9591 -9.91552C51.6211 -10.0614 51.2755 -10.2074 50.9376 -10.3456L54.601 -19.4309C55.008 -19.262 55.4227 -19.093 55.8297 -18.9164L51.9667 -9.91552H51.9591ZM17.0539 -10.5606L13.5365 -19.7074C13.9512 -19.8687 14.3659 -20.0223 14.7883 -20.1759L18.106 -10.96L17.0539 -10.5683V-10.5606ZM49.4861 -10.8986C49.1405 -11.0214 48.7949 -11.1443 48.4493 -11.2672L51.5827 -20.5522C52.0051 -20.4063 52.4275 -20.2604 52.8499 -20.1068L49.4861 -10.9062V-10.8986ZM19.5729 -11.4515L16.5777 -20.7826C17.0001 -20.9208 17.4225 -21.0514 17.8526 -21.1743L20.6404 -11.7817C20.2871 -11.6742 19.9261 -11.5667 19.5729 -11.4515V-11.4515ZM46.9748 -11.7357C46.6215 -11.8432 46.2682 -11.943 45.915 -12.0429L48.5031 -21.4968C48.9332 -21.3816 49.3709 -21.2511 49.7933 -21.1282L46.9748 -11.7433V-11.7357ZM22.1226 -12.1888L19.6804 -21.6812C20.1105 -21.7887 20.5405 -21.8962 20.9783 -21.996L23.2131 -12.4576C22.8522 -12.3731 22.4912 -12.2809 22.1303 -12.1888H22.1226ZM44.4174 -12.4192C44.0641 -12.5037 43.7108 -12.5805 43.3576 -12.6573L45.3697 -22.2495C45.8151 -22.1573 46.2529 -22.0575 46.6983 -21.9499L44.4251 -12.4192H44.4174ZM24.7261 -12.7878L22.7984 -22.3954C23.2439 -22.4875 23.6893 -22.5643 24.1347 -22.6411L25.7936 -12.9875C25.4326 -12.926 25.0794 -12.8569 24.7261 -12.7878V-12.7878ZM41.8293 -12.9568L40.7234 -13.1411L42.2132 -22.8255C42.651 -22.7563 43.0888 -22.6872 43.5265 -22.6104L41.8293 -12.9568ZM27.3373 -13.2256L25.9856 -22.933C26.431 -22.9944 26.8688 -23.0482 27.3142 -23.1019L28.4355 -13.3715C28.0669 -13.3331 27.7059 -13.2793 27.3373 -13.2332V-13.2256ZM39.2027 -13.3484C38.8341 -13.3945 38.4731 -13.4329 38.1045 -13.4636L39.0184 -23.2171C39.4638 -23.1787 39.9093 -23.125 40.3547 -23.0789L39.2027 -13.3484V-13.3484ZM29.9868 -13.5174L29.1804 -23.2863C29.6336 -23.3247 30.079 -23.3554 30.5321 -23.3784L31.0774 -13.5942C30.7087 -13.5712 30.3478 -13.5481 29.9868 -13.5174ZM36.5685 -13.5788C36.1999 -13.6019 35.8312 -13.6172 35.4626 -13.6326L35.8082 -23.4245C36.2536 -23.4091 36.6991 -23.3861 37.1445 -23.3631L36.5685 -13.5788ZM32.6287 -13.648L32.3983 -23.4475C32.8438 -23.4552 33.2892 -23.4629 33.7346 -23.4629L33.9189 -13.6633H33.6425C33.366 -13.6633 32.9974 -13.6633 32.6287 -13.648Z" fill="url(#paint1_linear_1610_3000)"/>
<path d="M89.5676 32.3922C89.5676 63.2367 64.5533 88.2916 33.7087 88.2916C2.86418 88.2916 -22.1907 63.2469 -22.1907 32.3922C-22.1907 29.5734 -21.9676 26.8154 -21.5924 24.1183C-17.567 -2.83265 5.64242 -23.4971 33.6986 -23.4971C61.7547 -23.4971 84.9642 -2.79209 88.9592 24.1589C89.3445 26.856 89.5574 29.614 89.5574 32.4023L89.5676 32.3922Z" fill="url(#paint2_linear_1610_3000)"/>
<path d="M51.6671 40.8642L51.7516 40.7797L51.6671 48.1985V52.4609H51.6211V52.9985L46.5216 57.2301L39.6711 52.745L44.1331 48.3214L45.7459 46.724V31.7481L36.507 40.9871V56.9306L41.3377 59.8797L33.9573 64.4492L26.4309 59.68L31.2616 56.8231V40.941L22.0611 31.7405V34.6972H16.1399V22.8625H17.9523L26.2389 27.0403L33.8958 34.6972L40.0398 28.5533L51.575 22.8625H51.6595V40.8565L51.6671 40.8642ZM16.5085 52.4609V52.9985L21.6003 57.2301L28.4508 52.745L23.9657 48.2983L22.0764 46.4244V40.6184L16.1552 34.6972V52.4532H16.5085V52.4609ZM22.7215 20.6814L29.8178 15.1211L15.0493 5.33691L16.2704 17.3483L22.7215 20.6814ZM38.3809 15.1211L45.4771 20.6814L51.9283 17.3483L53.1494 5.33691L38.3809 15.1211Z" fill="#785411"/>
<path d="M50.8529 39.7353L50.9374 39.6508L50.8529 47.0696V51.332H50.8068V51.8695L45.7074 56.1012L38.8569 51.6161L43.3189 47.1925L44.9317 45.5951V30.6192L35.6928 39.8582V55.8017L40.5234 58.7508L33.1431 63.3203L25.6167 58.5511L30.4474 55.6941V39.8121L21.2469 30.6115V33.5683H15.3257V21.7336H17.1381L25.4247 25.9114L33.0816 33.5683L39.2255 27.4244L50.7608 21.7336H50.8453V39.7276L50.8529 39.7353ZM15.6943 51.332V51.8695L20.7861 56.1012L27.6366 51.6161L23.1515 47.1694L21.2622 45.2955V39.4895L15.341 33.5683V51.3243H15.6943V51.332ZM21.9073 19.5525L29.0036 13.9922L14.2351 4.20801L15.4562 16.2194L21.9073 19.5525V19.5525ZM37.5667 13.9922L44.6629 19.5525L51.114 16.2194L52.3352 4.20801L37.5667 13.9922V13.9922Z" fill="url(#paint3_linear_1610_3000)"/>
<path style="mix-blend-mode:screen" d="M101.428 15.1576C86.3942 28.3098 64.2736 36.6092 39.6359 36.6092C14.9983 36.6092 -7.15637 28.3097 -22.1907 15.1235C-17.6895 -15.0131 8.26343 -38.1201 39.6359 -38.1201C71.0084 -38.1201 96.9613 -14.9677 101.428 15.1689V15.1576Z" fill="url(#paint4_linear_1610_3000)"/>
</g>
</g>
<defs>
<radialGradient id="paint0_radial_1610_3000" cx="0" cy="0" r="1" gradientUnits="userSpaceOnUse" gradientTransform="translate(25.5003 41.5095) scale(70.5093)">
<stop offset="0.56" stop-color="#8A8A8A"/>
<stop offset="0.69" stop-color="#BEBEBE"/>
<stop offset="0.74" stop-color="#CCCCCC"/>
<stop offset="0.84" stop-color="#E8E8E8"/>
<stop offset="0.93" stop-color="#F9F9F9"/>
<stop offset="1" stop-color="white"/>
</radialGradient>
<linearGradient id="paint1_linear_1610_3000" x1="-22.1675" y1="32.3854" x2="89.5522" y2="32.3854" gradientUnits="userSpaceOnUse">
<stop stop-color="#FFF691"/>
<stop offset="0.06" stop-color="#FBF08A"/>
<stop offset="0.15" stop-color="#F1E077"/>
<stop offset="0.26" stop-color="#E1C658"/>
<stop offset="0.34" stop-color="#D2AE3C"/>
<stop offset="0.51" stop-color="#B58C28"/>
<stop offset="0.67" stop-color="#A07419"/>
<stop offset="0.82" stop-color="#946611"/>
<stop offset="0.94" stop-color="#90610E"/>
</linearGradient>
<linearGradient id="paint2_linear_1610_3000" x1="-103.804" y1="207.867" x2="103.733" y2="-56.988" gradientUnits="userSpaceOnUse">
<stop stop-color="#FFF691"/>
<stop offset="0.06" stop-color="#FBF08A"/>
<stop offset="0.15" stop-color="#F1E077"/>
<stop offset="0.26" stop-color="#E1C658"/>
<stop offset="0.34" stop-color="#D2AE3C"/>
<stop offset="0.51" stop-color="#B58C28"/>
<stop offset="0.67" stop-color="#A07419"/>
<stop offset="0.82" stop-color="#946611"/>
<stop offset="0.94" stop-color="#90610E"/>
</linearGradient>
<linearGradient id="paint3_linear_1610_3000" x1="27.8746" y1="24.3755" x2="114.965" y2="82.3665" gradientUnits="userSpaceOnUse">
<stop stop-color="#FFF691"/>
<stop offset="0.06" stop-color="#FBF08A"/>
<stop offset="0.15" stop-color="#F1E077"/>
<stop offset="0.26" stop-color="#E1C658"/>
<stop offset="0.34" stop-color="#D2AE3C"/>
<stop offset="0.51" stop-color="#B58C28"/>
<stop offset="0.67" stop-color="#A07419"/>
<stop offset="0.82" stop-color="#946611"/>
<stop offset="0.94" stop-color="#90610E"/>
</linearGradient>
<linearGradient id="paint4_linear_1610_3000" x1="-75.5591" y1="-101.817" x2="150.885" y2="109.899" gradientUnits="userSpaceOnUse">
<stop stop-color="#FFF691"/>
<stop offset="0.02" stop-color="#EAE285"/>
<stop offset="0.09" stop-color="#BAB369"/>
<stop offset="0.16" stop-color="#8D8850"/>
<stop offset="0.24" stop-color="#67633A"/>
<stop offset="0.31" stop-color="#474428"/>
<stop offset="0.4" stop-color="#2D2B19"/>
<stop offset="0.49" stop-color="#19180E"/>
<stop offset="0.6" stop-color="#0A0A06"/>
<stop offset="0.73" stop-color="#020201"/>
<stop offset="0.94"/>
</linearGradient>
<clipPath id="clip0_1610_3000">
<rect width="65" height="65" fill="white"/>
</clipPath>
<clipPath id="clip1_1610_3000">
<rect width="141.019" height="141.019" fill="white" transform="translate(-45 -29)"/>
</clipPath>
</defs>
</svg>
